# AST/ASF file generated using VICON BodyLanguage
# -----------------------------------------------
:version 1.10
:name VICON
:units
  mass 1.0
  length 0.45
  angle deg
:documentation
   .ast/.asf automatically generated from VICON data using
   VICON BodyBuilder and BodyLanguage model FoxedUp or BRILLIANT.MOD
:root
   order TX TY TZ RX RY RZ
   axis XYZ
   position 0 0 0  
   orientation 0 -0 0 
:bonedata
  begin
     id 1 
     name lhipjoint
     direction 0.515797 -0.759363 0.396637 
     length 2.47888 
     axis 0 -0 0  XYZ
  end
  begin
     id 2 
     name lfemur
     direction 0.34202 -0.939693 0  
     length 6.81885  
     axis 0 -0 20  XYZ
    dof rx ry rz
    limits (-160.0 20.0)
           (-70.0 70.0)
           (-60.0 70.0)
  end
  begin
     id 3 
     name ltibia
     direction 0.342037 -0.939687 0   
     length 7.89258   
     axis 0 -0 20   XYZ
    dof rx
    limits (-10.0 170.0)
  end
  begin
     id 4 
     name lfoot
     direction 0.173497 -0.476678 0.861787   
     length 2.51543   
     axis -90 -1.13533e-015 20   XYZ
    dof rx rz
    limits (-45.0 90.0)
           (-70.0 20.0)
  end
  begin
     id 5 
     name ltoes
     direction 1.53564e-011 -4.21897e-011 1   
     length 1.21388   
     axis -90 -1.13533e-015 20   XYZ
    dof rx
    limits (-90.0 20.0)
  end
  begin
     id 6 
     name rhipjoint
     direction -0.489454 -0.772941 0.403729   
     length 2.43534  
     axis 0 -0 0  XYZ 
  end
  begin
     id 7 
     name rfemur
     direction -0.34202 -0.939693 0   
     length 7.10357   
     axis 0 -0 -20   XYZ
    dof rx ry rz
    limits (-160.0 20.0)
           (-70.0 70.0)
           (-70.0 60.0)
  end
  begin
     id 8 
     name rtibia
     direction -0.34202 -0.939693 0   
     length 9.16127   
     axis 0 -0 -20   XYZ
    dof rx
    limits (-10.0 170.0)
 end
 begin
     id 9 
     name rfoot
     direction -0.270974 -0.748671 0.605033   
     length 1.74894  
     axis -90 1.13533e-015 -20   XYZ
    dof rx rz
    limits (-45.0 90.0)
           (-20.0 70.0)
  end
  begin
     id 10 
     name rtoes
     direction -1.53557e-011 -4.21759e-011 1   
     length 0.787585   
     axis -90 1.13533e-015 -20   XYZ
    dof rx
    limits (-90.0 20.0)
  end
  begin
     id 11 
     name lowerback
     direction -0.0140249 0.999561 0.0260968   
     length 2.16963   
     axis 0 -0 0   XYZ
    dof rx ry rz
    limits (-20.0 45.0)
           (-30.0 30.0)
           (-30.0 30.0)
  end
  begin
     id 12 
     name upperback
     direction 0.00860018 0.999959 -0.002711   
     length 2.1726   
     axis 0 -0 0   XYZ
    dof rx ry rz
    limits (-20.0 45.0)
           (-30.0 30.0)
           (-30.0 30.0)
  end
  begin
     id 13 
     name thorax
     direction 0.015211 0.999782 -0.0143191   
     length 2.17061   
     axis 0 -0 0   XYZ
    dof rx ry rz
    limits (-20.0 45.0)
           (-30.0 30.0)
           (-30.0 30.0)
  end
  begin
     id 14 
     name lowerneck
     direction -0.0140143 0.999447 0.030145   
     length 2.26749   
     axis 0 -0 0   XYZ
    dof rx ry rz
    limits (-20.0 45.0)
           (-30.0 30.0)
           (-30.0 30.0)
  end
  begin
     id 15 
     name upperneck
     direction 0.118062 0.961438 -0.248392   
     length 2.22728   
     axis 0 -0 0   XYZ
    dof rx ry rz
    limits (-20.0 45.0)
           (-30.0 30.0)
           (-30.0 30.0)
  end
  begin
     id 16
     name head
     direction 0.0431885 0.9954 -0.085514  
     length 2.28786  
     axis 0 -0 0   XYZ
    dof rx ry rz
    limits (-20.0 45.0)
           (-30.0 30.0)
           (-30.0 30.0)
  end
  begin
     id 17 
     name lclavicle
     direction 0.912126 0.409548 0.0172323  
     length 4.31571  
     axis 0 -0 0   XYZ
    dof ry rz
    limits (-20.0 10.0)
           (0.0 20.0)
  end
  begin
     id 18 
     name lhumerus
     direction 1 -4.48977e-011 1.93091e-027   
     length 5.13658   
     axis 180 -30 -90   XYZ
    dof rx ry rz
    limits (-60.0 90.0)
           (-90.0 90.0)
           (-90.0 90.0)
  end
  begin
     id 19
     name lradius
     direction 1 -4.48916e-011 6.84018e-027   
     length 3.22473   
     axis 180 -30 -90   XYZ
    dof rx
    limits (-10.0 170.0)
  end
  begin
     id 20
     name lwrist
     direction 1 -4.48987e-011 7.01981e-027   
     length 1.61236   
     axis -4.37994e-015 90 90   XYZ
    dof ry
    limits (-180.0 0.0)
 end
  begin
     id 21 
     name lhand
     direction 1 -4.49037e-011 1.40335e-026   
     length 0.936406   
     axis -8.96029e-015 90 90   XYZ
    dof rx rz
    limits (-90.0 90.0)
           (-45.0 45.0)
  end
  begin
     id 22 
     name lfingers
     direction 1 -4.48886e-011 2.8104e-026   
     length 0.754955   
     axis -1.79203e-014 90 90   XYZ
    dof rx
    limits (0.0 90.0)
  end
  begin
     id 23
     name lthumb
     direction 0.707107 -6.34937e-011 0.707107   
     length 1.08397   
     axis -90 45 -4.48555e-014   XYZ
    dof rx rz
    limits (-45.0 45.0)
           (-45.0 45.0)
  end
  begin
     id 24 
     name rclavicle
     direction -0.947962 0.317997 0.0156638   
     length 4.86918  
     axis 0 -0 0   XYZ 
    dof ry rz
    limits (-10.0 20.0)
           (-20.0 0.0)
  end
  begin
     id 25 
     name rhumerus
     direction -1 -4.48951e-011 2.80534e-018  
     length 5.60911   
     axis 180 30 90   XYZ
    dof rx ry rz
    limits (-90.0 60.0)
           (-90.0 90.0)
           (-90.0 90.0)
  end
  begin
     id 26 
     name rradius
     direction -1 -4.4898e-011 2.11315e-027   
     length 3.38704   
     axis 180 30 90   XYZ
    dof rx
    limits (-10.0 170.0)
  end
  begin
     id 27 
     name rwrist
     direction -1 -4.48933e-011 7.02314e-027   
     length 1.69352   
     axis -4.37994e-015 -90 -90   XYZ
    dof ry
    limits (-180.0 0.0)
  end
  begin
     id 28
     name rhand
     direction -1 -4.48937e-011 1.40458e-026   
     length 0.755878   
     axis -8.96029e-015 -90 -90   XYZ
    dof rx rz
    limits (-90.0 90.0)
           (-45.0 45.0)
  end
  begin
     id 29
     name rfingers
     direction -1 -4.4901e-011 2.80737e-026   
     length 0.609409   
     axis -1.79203e-014 -90 -90   XYZ
    dof rx
    limits (0.0 90.0)
  end
  begin
     id 30
     name rthumb
     direction -0.707107 -6.34968e-011 0.707107   
     length 0.874992   
     axis -90 -45 4.48555e-014   XYZ
    dof rx rz
    limits (-45.0 45.0)
           (-45.0 45.0)
  end
:hierarchy
  begin
    root lhipjoint rhipjoint lowerback
    lhipjoint lfemur
    lfemur ltibia
    ltibia lfoot
    lfoot ltoes
    rhipjoint rfemur
    rfemur rtibia
    rtibia rfoot
    rfoot rtoes
    lowerback upperback
    upperback thorax
    thorax lowerneck lclavicle rclavicle
    lowerneck upperneck
    upperneck head
    lclavicle lhumerus
    lhumerus lradius
    lradius lwrist
    lwrist lhand lthumb
    lhand lfingers
    rclavicle rhumerus
    rhumerus rradius
    rradius rwrist
    rwrist rhand rthumb
    rhand rfingers
  end

#!OML:ASF C:\ViconDB\ViconDB\414\Spring2016\041811\Spring2016.ASF
:FULLY-SPECIFIED
:DEGREES
53
root 13.2095 18.0936 12.2752 -177.914 -8.18939 -178.066
lowerback 1.91467 1.08895 -1.35809
upperback 1.10701 1.4099 0.304255
thorax 0.0200298 0.689532 1.04563
lowerneck -15.455 1.42283 -4.29826
upperneck 23.5104 -0.957877 11.7925
head 10.0931 0.132705 4.73599
rclavicle 1.0138e-014 -4.57205e-015
rhumerus -44.3517 -18.7528 -72.8092
rradius 38.681
rwrist 38.7963
rhand -32.9348 -14.2632
rfingers 7.12502
rthumb -6.15122 -44.1539
lclavicle 1.0138e-014 -4.57205e-015
lhumerus -39.2527 4.96312 80.2294
lradius 29.9166
lwrist -31.4743
lhand -28.7291 15.7786
lfingers 7.12502
lthumb -2.09003 45.7481
rfemur 166.576 44.0333 -168.656
rtibia 30.2426
rfoot -44.9629 -48.4202
rtoes 4.13472e-014
lfemur -12.1072 -10.6519 -11.5532
ltibia 28.6509
lfoot -20.7398 1.75108
ltoes -4.37326e-015
54
root 13.1849 18.0866 12.272 -178.121 -7.84882 -177.907
lowerback 2.1006 1.12506 -1.33565
upperback 1.10387 1.45484 0.404301
thorax -0.0905439 0.712142 1.13062
lowerneck -15.4514 1.56719 -4.15727
upperneck 23.5999 -0.782465 11.7043
head 10.1074 0.215345 4.70433
rclavicle -2.18415e-014 -7.15625e-015
rhumerus -44.2586 -19.1869 -72.4259
rradius 38.7103
rwrist 38.7145
rhand -32.8364 -14.2609
rfingers 7.12502
rthumb -6.05625 -44.1544
lclavicle -2.18415e-014 -7.15625e-015
lhumerus -39.6271 5.30683 80.2916
lradius 29.6314
lwrist -31.9946
lhand -28.5084 15.0121
lfingers 7.12502
lthumb -1.87695 44.9836
rfemur 166.372 43.9359 -168.7
rtibia 30.2048
rfoot -45.1571 -48.4575
rtoes -8.74653e-015
lfemur -11.7362 -10.2962 -11.4677
ltibia 28.5313
lfoot -20.7415 1.60046
ltoes 3.44891e-014
55
root 13.1578 18.0838 12.2669 -178.183 -7.5453 -177.977
lowerback 2.0933 1.15308 -1.48085
upperback 1.1001 1.48986 0.442607
thorax -0.096 0.729143 1.25045
lowerneck -15.3246 1.6552 -4.08841
upperneck 23.5092 -0.630527 11.5901
head 10.0354 0.277582 4.66335
rclavicle 5.71506e-015 -5.96354e-016
rhumerus -44.1606 -19.6362 -72.0245
rradius 38.7982
rwrist 38.8945
rhand -32.6875 -14.184
rfingers 7.12502
rthumb -5.91254 -44.0815
lclavicle 5.71506e-015 -5.96354e-016
lhumerus -39.9578 5.1704 80.524
lradius 29.3851
lwrist -32.1837
lhand -28.3951 14.4614
lfingers 7.12502
lthumb -1.76753 44.4339
rfemur 166.338 44.1812 -168.902
rtibia 30.1258
rfoot -45.7707 -48.5083
rtoes -3.33958e-014
lfemur -11.4963 -10.0435 -11.6552
ltibia 28.4328
lfoot -20.7491 1.57335
ltoes 3.77691e-014
56
root 13.1357 18.0836 12.2617 -178.31 -7.29318 -177.833
lowerback 2.1595 1.1445 -1.48142
upperback 1.09204 1.47721 0.540886
thorax -0.143476 0.722825 1.35019
lowerneck -15.2804 1.7645 -4.08355
upperneck 23.5297 -0.491806 11.6189
head 10.0205 0.34236 4.68958
rclavicle 1.25483e-014 5.1684e-015
rhumerus -44.0499 -20.0872 -71.6896
rradius 38.8044
rwrist 39.2389
rhand -32.7325 -14.0543
rfingers 7.12502
rthumb -5.95595 -43.9506
lclavicle 1.25483e-014 5.1684e-015
lhumerus -40.3019 5.03622 80.834
lradius 29.2973
lwrist -31.9664
lhand -28.2144 14.8693
lfingers 7.12502
lthumb -1.593 44.8431
rfemur 166.249 44.1999 -168.872
rtibia 30.0849
rfoot -46.0656 -48.5153
rtoes 4.92986e-014
lfemur -11.2319 -9.62293 -11.5753
ltibia 28.3261
lfoot -20.687 1.39197
ltoes -3.61291e-014
57
root 13.1175 18.0832 12.2568 -178.397 -7.09726 -177.793
lowerback 2.19925 1.15361 -1.5894
upperback 1.069 1.48702 0.637339
thorax -0.194886 0.727832 1.50811
lowerneck -15.1389 1.81897 -4.05559
upperneck 23.5172 -0.380096 11.4667
head 9.97742 0.376515 4.63948
rclavicle -1.49089e-014 -2.5842e-015
rhumerus -44.0321 -20.4254 -71.3671
rradius 38.9346
rwrist 39.2352
rhand -32.7809 -14.0222
rfingers 7.12502
rthumb -6.00268 -43.9171
lclavicle -1.49089e-014 -2.5842e-015
lhumerus -40.562 5.29715 80.8631
lradius 28.7403
lwrist -32.8381
lhand -28.3172 14.3451
lfingers 7.12502
lthumb -1.69225 44.3181
rfemur 166.225 44.3579 -168.908
rtibia 30.0042
rfoot -46.4457 -48.5571
rtoes 1.06549e-013
lfemur -11.0226 -9.37469 -11.5755
ltibia 28.2574
lfoot -20.7076 1.21801
ltoes 2.89729e-014
58
root 13.0972 18.0838 12.2483 -178.394 -6.86908 -178.109
lowerback 2.101 1.19048 -1.92226
upperback 1.06201 1.53248 0.503389
thorax -0.153708 0.750047 1.55828
lowerneck -15.0603 1.89883 -3.93755
upperneck 23.5628 -0.340906 11.537
head 9.97573 0.404496 4.64825
rclavicle -2.13694e-015 8.94531e-015
rhumerus -44.0906 -21.0229 -71.1997
rradius 39.0981
rwrist 39.282
rhand -32.9885 -14.0832
rfingers 7.12502
rthumb -6.20312 -43.9724
lclavicle -2.13694e-015 8.94531e-015
lhumerus -40.7005 5.00735 80.8899
lradius 28.2555
lwrist -33.0168
lhand -28.2586 14.1885
lfingers 7.12502
lthumb -1.63569 44.162
rfemur 166.211 44.6338 -169.357
rtibia 29.9145
rfoot -47.0634 -48.5227
rtoes -5.48646e-014
lfemur -10.8259 -9.1727 -11.9765
ltibia 28.182
lfoot -20.8298 1.05433
ltoes 3.3197e-014
